<?xml version="1.0" encoding="utf-8"?>
<!-- Svg Vector Icons : http://www.onlinewebfonts.com/icon -->
<!DOCTYPE svg PUBLIC "-//W3C//DTD SVG 1.1//EN" "http://www.w3.org/Graphics/SVG/1.1/DTD/svg11.dtd">
<svg version="1.1" xmlns="http://www.w3.org/2000/svg" xmlns:xlink="http://www.w3.org/1999/xlink" x="0px" y="0px" viewBox="0 0 1000 1000" enable-background="new 0 0 1000 1000" xml:space="preserve">
<metadata> Svg Vector Icons : http://www.onlinewebfonts.com/icon </metadata>
<g><path fill="#FE5639" d="M500,132.5c202.7,0,367.5,164.9,367.5,367.5c0,202.6-164.9,367.5-367.5,367.5c-202.6,0-367.5-164.9-367.5-367.5C132.5,297.4,297.4,132.5,500,132.5 M500,10C229.4,10,10,229.4,10,500s219.4,490,490,490s490-219.4,490-490S770.6,10,500,10"/><path fill="#FE5639"    d="M622.5,683.8c-15.7,0-31.4-6-43.3-17.9L456.8,543.3c-11.1-11-18-26.3-18-43.2v0V500V255c0-33.9,27.4-61.3,61.3-61.3s61.3,27.4,61.3,61.3v219.6l104.6,104.6c23.9,23.9,23.9,62.7,0,86.6C653.9,677.8,638.2,683.8,622.5,683.8"/></g>
</svg>